<?xml version="1.0" standalone="no"?>
<!DOCTYPE svg PUBLIC "-//W3C//DTD SVG 20010904//EN"
 "http://www.w3.org/TR/2001/REC-SVG-20010904/DTD/svg10.dtd">
<svg version="1.0" xmlns="http://www.w3.org/2000/svg"
 width="1976.000000pt" height="1976.000000pt" viewBox="0 0 1976.000000 1976.000000"
 preserveAspectRatio="xMidYMid meet">
<metadata>
Created by potrace 1.14, written by Peter Selinger 2001-2017
</metadata>
<g transform="translate(0.000000,1976.000000) scale(0.100000,-0.100000)"
fill="#000000" stroke="none">
<path d="M10409 14105 c-3 -2 -50 -7 -105 -11 -128 -8 -149 -10 -334 -36 -47
-6 -92 -12 -100 -13 -8 -1 -31 -5 -50 -8 -19 -4 -53 -9 -75 -12 -22 -3 -57
-10 -77 -16 -20 -5 -40 -9 -45 -8 -4 1 -10 0 -13 -1 -9 -3 -34 -8 -75 -15 -22
-4 -43 -9 -48 -12 -4 -2 -20 -7 -35 -9 -15 -3 -45 -10 -67 -16 -22 -6 -47 -12
-55 -13 -8 -1 -22 -5 -30 -8 -8 -3 -44 -13 -80 -22 -98 -25 -444 -136 -515
-166 -16 -7 -34 -13 -40 -14 -35 -9 -374 -153 -447 -191 -15 -8 -29 -14 -30
-13 -2 2 -14 -4 -28 -11 -14 -8 -28 -13 -32 -12 -5 1 -8 -2 -8 -6 0 -5 -29
-21 -65 -37 -36 -15 -65 -32 -65 -36 0 -5 -6 -9 -12 -9 -15 0 -27 -7 -148 -75
-60 -34 -98 -49 -130 -51 -25 -1 -45 -3 -45 -4 0 -1 -27 -3 -60 -5 -33 -2 -80
-6 -105 -9 -25 -3 -72 -7 -105 -11 -33 -3 -71 -8 -85 -11 -14 -2 -45 -7 -70
-9 -25 -3 -56 -7 -70 -10 -14 -3 -47 -8 -74 -11 -26 -4 -76 -12 -109 -19 -34
-7 -67 -10 -74 -8 -7 3 -13 1 -13 -4 0 -5 -6 -10 -12 -10 -44 -1 -312 -61
-458 -103 -41 -11 -82 -22 -90 -23 -8 -2 -31 -8 -50 -14 -19 -6 -89 -28 -155
-48 -66 -21 -129 -41 -140 -46 -11 -5 -60 -23 -110 -40 -133 -46 -371 -144
-489 -200 -22 -11 -46 -19 -53 -19 -7 0 -13 -4 -13 -10 0 -5 -6 -10 -14 -10
-8 0 -31 -9 -50 -21 -20 -12 -36 -17 -36 -12 0 4 -4 3 -8 -3 -4 -6 -47 -30
-97 -55 -89 -43 -203 -104 -300 -161 -27 -16 -58 -32 -68 -35 -9 -3 -17 -9
-17 -13 0 -4 -15 -13 -32 -21 -18 -7 -35 -16 -38 -19 -3 -3 -59 -39 -125 -80
-66 -41 -150 -96 -188 -122 -37 -26 -69 -48 -72 -48 -3 0 -11 -4 -18 -10 -53
-43 -76 -60 -81 -60 -4 0 -12 -5 -19 -10 -7 -6 -39 -31 -72 -55 -33 -25 -67
-52 -76 -60 -9 -8 -21 -15 -27 -15 -5 0 -12 -4 -14 -8 -1 -4 -57 -50 -123
-102 -66 -52 -125 -99 -131 -105 -6 -5 -32 -28 -58 -50 -159 -132 -324 -285
-520 -480 -154 -154 -366 -375 -359 -375 2 0 -5 -8 -15 -18 -33 -35 -144 -162
-165 -190 -12 -15 -31 -37 -42 -48 -11 -12 -33 -39 -50 -59 -29 -36 -47 -59
-125 -156 -19 -24 -43 -51 -52 -61 -10 -10 -18 -22 -18 -26 0 -5 -11 -19 -25
-32 -14 -13 -25 -29 -25 -36 0 -7 -4 -14 -8 -16 -7 -2 -101 -126 -180 -236
-10 -13 -33 -45 -52 -71 -19 -27 -41 -57 -48 -67 -7 -10 -51 -74 -97 -142 -47
-68 -85 -126 -85 -128 0 -3 -11 -20 -25 -38 -14 -18 -25 -38 -25 -44 0 -7 -3
-12 -8 -12 -4 0 -16 -16 -26 -35 -11 -19 -23 -35 -28 -35 -4 0 -8 -9 -8 -20 0
-11 -5 -20 -10 -20 -6 0 -14 -8 -17 -17 -4 -10 -22 -43 -41 -73 -74 -117 -182
-301 -182 -310 0 -6 -4 -10 -10 -10 -5 0 -10 -7 -10 -15 0 -8 -4 -15 -10 -15
-5 0 -10 -5 -10 -12 0 -6 -27 -57 -60 -114 -33 -56 -60 -107 -60 -112 0 -6 -3
-12 -7 -14 -8 -3 -48 -77 -123 -223 -19 -38 -41 -75 -48 -83 -7 -7 -10 -17 -7
-22 3 -5 2 -10 -2 -12 -12 -5 -232 -450 -323 -653 -13 -27 -36 -79 -52 -115
-56 -123 -71 -158 -149 -340 -29 -69 -59 -136 -66 -149 -6 -14 -10 -28 -7 -33
3 -4 0 -8 -5 -8 -6 0 -11 -7 -11 -16 0 -8 -10 -39 -23 -67 -13 -29 -33 -77
-44 -107 -36 -94 -113 -294 -124 -320 -6 -14 -11 -27 -11 -30 0 -3 -7 -21 -15
-40 -8 -19 -21 -55 -29 -80 -8 -25 -19 -54 -24 -65 -12 -24 -107 -295 -122
-345 -6 -19 -13 -39 -16 -45 -4 -5 -8 -19 -9 -29 -2 -11 -8 -25 -14 -33 -6 -7
-9 -13 -5 -13 3 0 -1 -16 -9 -36 -8 -20 -15 -38 -15 -40 0 -2 1266 -4 2814 -4
l2815 0 7 23 c5 12 7 26 6 30 -1 5 3 27 9 50 14 49 15 52 22 92 3 17 8 37 11
45 3 8 8 26 10 40 3 14 11 45 17 70 6 25 12 52 14 60 1 8 7 35 14 60 7 25 35
128 63 230 27 102 51 190 53 195 1 6 5 17 8 25 6 17 51 162 52 170 4 27 138
423 197 580 30 82 34 92 52 133 9 21 16 42 16 48 0 6 11 34 24 62 25 55 37 85
42 102 4 18 135 319 180 414 24 51 44 95 44 97 0 18 276 550 359 694 59 102
72 126 78 143 3 9 9 17 14 17 5 0 9 7 9 15 0 9 8 19 18 22 9 4 19 9 22 13 16
20 589 290 616 290 8 0 14 5 14 12 0 6 3 8 7 5 3 -4 12 -2 20 4 7 6 13 9 13 5
0 -4 12 0 28 8 67 34 418 157 426 148 3 -3 6 1 6 8 0 7 3 11 6 7 3 -3 18 -1
33 5 14 5 33 11 41 13 30 7 175 46 190 52 17 7 25 9 60 16 14 3 50 12 80 20
49 13 118 29 191 42 13 3 35 7 49 10 35 8 119 23 160 30 19 3 60 10 90 15 30
5 75 12 100 15 25 3 56 8 70 10 14 3 50 7 80 10 30 3 78 7 105 10 95 9 190 16
285 21 52 2 106 6 120 7 14 2 33 0 42 -5 9 -4 19 -4 22 0 6 10 247 9 264 -1 6
-5 12 -4 12 1 0 5 17 7 38 6 20 -2 87 -6 147 -9 166 -9 250 -14 250 -15 0 -1
18 -3 40 -5 22 -1 40 -4 40 -4 0 -1 20 -4 45 -5 73 -6 345 -42 345 -46 0 -1
11 -3 25 -5 31 -3 79 -11 150 -25 30 -6 66 -13 80 -16 14 -2 36 -7 50 -10 14
-3 39 -8 55 -11 41 -7 60 -11 60 -13 0 -1 11 -3 25 -6 14 -2 34 -6 45 -9 11
-2 23 -5 27 -5 4 -1 37 -10 73 -20 36 -10 69 -19 73 -20 19 -3 59 -12 72 -17
8 -3 24 -8 35 -10 11 -2 31 -8 45 -13 14 -5 34 -11 45 -13 11 -2 27 -7 35 -10
13 -5 116 -36 145 -43 24 -6 203 -67 230 -79 17 -7 57 -22 91 -33 50 -17 196
-73 279 -107 11 -5 22 -9 25 -10 3 0 25 -11 49 -23 25 -12 48 -22 53 -22 4 0
39 -15 78 -34 38 -19 70 -32 70 -29 0 4 9 -2 20 -12 11 -10 20 -15 20 -12 0 6
444 -214 490 -243 15 -9 186 -106 265 -150 22 -12 59 -35 83 -51 24 -16 46
-29 49 -29 3 0 21 -11 39 -25 18 -14 37 -25 43 -25 6 0 11 -4 11 -10 0 -5 5
-10 10 -10 6 0 85 -51 176 -113 91 -61 174 -116 183 -122 18 -11 388 -289 434
-327 91 -74 296 -245 317 -264 14 -13 39 -36 56 -51 238 -211 599 -572 764
-763 12 -14 36 -41 53 -60 18 -19 55 -62 82 -95 28 -33 55 -64 61 -70 6 -5 30
-35 55 -65 24 -30 47 -56 52 -58 4 -2 7 -8 7 -13 0 -5 9 -19 20 -31 34 -37 45
-51 76 -93 16 -22 31 -42 34 -45 13 -13 189 -251 239 -325 19 -27 38 -51 43
-53 4 -2 8 -8 8 -13 0 -9 98 -158 111 -169 3 -3 8 -10 10 -16 2 -5 33 -56 69
-112 l65 -102 1447 0 1448 0 -4 23 c-3 12 -5 22 -6 22 -1 0 -3 9 -5 20 -1 11
-10 53 -20 94 -9 40 -18 78 -19 85 -2 6 -6 25 -10 41 -4 17 -19 75 -33 130
-13 55 -27 111 -29 125 -3 14 -16 64 -30 112 -13 48 -26 97 -28 110 -3 13 -5
23 -6 23 -1 0 -3 7 -5 15 -1 8 -9 35 -16 60 -15 53 -12 44 -28 100 -6 25 -15
52 -18 60 -3 8 -7 22 -8 30 -2 15 -55 192 -80 265 -7 22 -29 94 -50 160 -20
66 -39 127 -42 135 -3 8 -7 20 -8 25 -2 6 -12 35 -23 65 -11 30 -35 96 -52
145 -57 161 -150 408 -180 480 -4 11 -15 38 -24 60 -9 22 -23 53 -31 68 -8 16
-15 33 -15 39 0 6 -16 47 -36 92 -20 44 -42 95 -49 111 -7 17 -25 55 -39 86
-14 31 -26 61 -26 67 0 7 -5 12 -11 12 -5 0 -8 4 -5 8 3 5 -4 23 -15 40 -10
18 -19 39 -19 47 0 8 -4 15 -10 15 -5 0 -10 8 -10 18 0 10 -4 22 -9 27 -4 6
-23 44 -42 85 -19 41 -37 80 -41 85 -5 6 -44 80 -87 165 -102 201 -125 244
-133 250 -4 3 -11 17 -17 30 -11 26 -43 83 -123 219 -27 44 -48 84 -48 89 0 5
-9 17 -20 27 -11 10 -20 22 -20 27 0 5 -18 36 -40 69 -22 33 -40 65 -40 70 0
5 -3 9 -8 9 -4 0 -13 13 -20 28 -6 16 -21 38 -32 50 -11 12 -20 24 -20 27 0
10 -123 190 -132 193 -4 2 -8 8 -8 13 0 9 -37 66 -50 79 -3 3 -43 57 -89 120
-46 63 -90 121 -99 128 -9 6 -13 12 -9 12 6 0 -2 12 -47 63 -10 12 -30 38 -45
57 -14 19 -28 37 -31 40 -3 3 -37 43 -75 90 -90 109 -103 124 -145 169 -19 21
-70 77 -113 124 -98 109 -279 290 -386 387 -46 41 -98 89 -116 105 -35 32 -45
41 -150 129 -101 84 -106 88 -150 121 -22 17 -45 35 -51 40 -6 6 -22 17 -34
25 -12 8 -28 20 -34 26 -6 6 -24 19 -41 29 -16 11 -34 25 -38 32 -4 7 -14 13
-22 13 -7 0 -15 4 -17 9 -2 5 -64 48 -138 97 -74 49 -136 92 -138 96 -2 5 -8
8 -13 8 -5 0 -53 26 -107 59 -152 92 -378 211 -399 211 -7 0 -13 3 -13 8 0 4
-15 13 -32 21 -18 7 -69 30 -113 51 -44 20 -141 61 -215 90 -74 29 -148 58
-165 65 -16 7 -70 25 -120 40 -49 15 -99 31 -110 35 -23 10 -55 19 -86 25 -22
4 -95 50 -114 71 -5 6 -55 45 -110 85 -55 41 -102 77 -103 82 -2 4 -8 5 -13 1
-5 -3 -9 -1 -9 4 0 5 -20 22 -45 38 -25 15 -45 32 -45 36 0 4 -6 8 -14 8 -8 0
-21 6 -28 13 -41 41 -487 315 -633 389 -215 109 -362 180 -430 207 -11 5 -31
13 -45 19 -75 34 -196 82 -205 82 -5 0 -22 6 -37 14 -14 8 -43 19 -65 26 -21
6 -47 15 -58 20 -29 13 -264 89 -290 94 -47 10 -82 19 -90 24 -5 4 -17 7 -25
9 -8 1 -71 16 -140 32 -69 16 -136 32 -150 35 -14 3 -36 8 -50 11 -14 3 -40 7
-58 10 -18 2 -36 6 -40 8 -4 3 -32 8 -63 11 -31 4 -67 9 -80 11 -28 6 -64 11
-179 25 -47 6 -98 13 -115 15 -108 16 -884 33 -896 20z m6162 -3762 c13 -16
12 -17 -3 -4 -10 7 -18 15 -18 17 0 8 8 3 21 -13z"/>
</g>
</svg>
