<svg width="160" height="32" viewBox="0 0 160 32" fill="none" xmlns="http://www.w3.org/2000/svg">
<path d="M34.1756 4.91497C37.5364 3.74172 41.0042 3.62681 44.227 4.62265C42.0958 2.75571 39.7836 1.4125 37.3238 0.671464C32.9097 -0.658455 28.0896 -0.0341901 23.6173 2.73523C27.1212 2.51154 30.6956 3.27146 34.1756 4.91497Z" fill="#F15A3A"/>
<path d="M8.81891 28.1317C11.6014 14.953 17.2528 6.67342 23.6106 2.73633C14.1261 3.34144 5.16163 11.1513 0 28.1317H8.81891Z" fill="#2EBCCD"/>
<path d="M11.0612 28.1304C14.0436 22.6336 17.5132 18.9598 21.1739 16.7716C24.5298 10.6518 29.2382 6.63972 34.1801 4.91482C30.6998 3.2713 27.1255 2.51139 23.6216 2.73508C17.2637 6.67217 11.6123 14.9517 8.82982 28.1304H11.0612Z" fill="#D71920"/>
<path d="M17.1528 28.1313C18.0062 23.7809 19.3932 19.9853 21.1551 16.7725C17.4944 18.9607 14.0248 22.6345 11.0424 28.1313H17.1528Z" fill="#F15A3A"/>
<path d="M51.4248 28.1311H54.2543C49.2709 16.7055 41.9569 8.59461 34.1659 4.91553C29.224 6.64043 24.5156 10.6525 21.1597 16.7723C32.3261 10.0969 45.2511 17.1885 51.4248 28.1311Z" fill="#EFA715"/>
<path d="M54.261 28.1292H56.4948C53.9837 17.6914 49.7038 9.42149 44.2237 4.62128C41.0009 3.62544 37.5331 3.74008 34.1725 4.9136C41.9635 8.59268 49.2776 16.7036 54.261 28.1292Z" fill="#FEBD32"/>
<path d="M56.4883 28.1314H60.2422C57.7976 15.8175 52.0604 7.13575 44.3703 4.66955C44.3194 4.65333 44.2682 4.63923 44.2172 4.62354C49.6973 9.42374 53.9773 17.6937 56.4883 28.1314Z" fill="#F15A3A"/>
<path d="M110.727 18.5762C112.456 18.5762 113.151 20.2543 113.151 20.8769H107.964C108.237 19.6316 109.23 18.5762 110.727 18.5762ZM112.414 25.5149C112.034 25.8578 111.513 26.1104 110.843 26.1104C109.312 26.1104 108.328 25.1 108.022 23.7647C107.923 23.3857 107.964 23.0335 107.964 23.0335H115.847C115.847 18.8738 114.284 16.2749 110.727 16.2749C107.269 16.2749 105.268 18.9007 105.268 22.3659C105.268 25.8399 107.269 28.4564 110.727 28.4564H110.843C110.983 28.4564 111.124 28.4564 111.256 28.4386C111.562 28.4208 111.86 28.3753 112.133 28.3306C112.216 28.3123 112.29 28.2944 112.373 28.2761C113.895 27.8792 114.921 26.8414 115.499 25.3077C115.607 25.0188 115.698 24.7119 115.773 24.3871H113.175C113.043 24.7568 112.795 25.1811 112.414 25.5149Z" fill="#121618"/>
<path d="M72.4333 22.3992C72.4333 24.2672 73.3869 26.0171 75.2733 26.0171C77.1585 26.0171 78.1119 24.2672 78.1119 22.3992C78.1119 20.5309 77.1585 18.7813 75.2733 18.7813C73.3869 18.7813 72.4333 20.5309 72.4333 22.3992ZM80.8868 22.3992C80.8868 25.9697 78.828 28.6657 75.2733 28.6657C71.7177 28.6657 69.6587 25.9697 69.6587 22.3992C69.6587 18.8283 71.7177 16.1323 75.2733 16.1323C78.828 16.1323 80.8868 18.8283 80.8868 22.3992Z" fill="#121618"/>
<path d="M89.6766 22.3992C89.6549 20.6727 89.0699 18.7813 87.0755 18.7813C85.0816 18.7813 84.4961 20.6727 84.4744 22.3992C84.4961 24.1254 85.0816 26.0171 87.0755 26.0171C89.0699 26.0171 89.6549 24.1254 89.6766 22.3992ZM81.9165 16.4164H84.561V17.433H84.6044C85.4068 16.6294 86.4255 16.1323 87.726 16.1323C90.5009 16.1323 92.4512 18.9464 92.4512 22.3992C92.4512 25.8514 90.5009 28.6657 87.6829 28.6657C86.1002 28.6657 85.2552 28.0745 84.561 27.2233V31.6849H81.9165V16.4164Z" fill="#121618"/>
<path d="M96.1245 22.3966C96.146 24.1228 96.7309 26.0145 98.7256 26.0145C100.72 26.0145 101.305 24.1228 101.327 22.3966C101.305 20.6701 100.72 18.7787 98.7256 18.7787C96.7309 18.7787 96.146 20.6701 96.1245 22.3966ZM101.24 27.2207H101.196C100.546 28.0719 99.7008 28.6632 98.1182 28.6632C95.3002 28.6632 93.3496 25.8488 93.3496 22.3966C93.3496 18.9439 95.3002 16.1298 98.1182 16.1298C99.419 16.1298 100.437 16.6269 101.24 17.4304V13.1108H103.884V28.3794H101.24V27.2207Z" fill="#121618"/>
<path d="M117.745 17.0083H118.136V19.7166H118.175C118.547 18.0318 119.817 16.7524 121.791 16.7524C123.883 16.7524 125.368 18.1595 125.368 20.6975V27.9692H124.978V20.7613C124.978 18.2233 123.492 17.1785 121.791 17.1785C119.387 17.1785 118.136 19.3327 118.136 21.7638V27.9692H117.745V17.0083Z" fill="#121618"/>
<path d="M135.344 22.1479C135.363 19.4612 133.976 17.1785 131.376 17.1785C129.206 17.1785 127.466 19.0771 127.329 22.1479H135.344ZM127.329 22.5743C127.368 25.5171 128.443 27.799 131.298 27.799C133.369 27.799 134.894 26.5406 135.227 24.1739H135.617C135.344 26.6899 133.624 28.2254 131.337 28.2254C128.228 28.2682 126.938 25.7517 126.938 22.4889C126.938 18.8423 129.069 16.7524 131.337 16.7524C134.464 16.7524 135.853 19.5673 135.734 22.5743H127.329Z" fill="#121618"/>
<path d="M137.69 27.9702H137.299V17.0093H137.69V19.7175H137.729C138.1 18.0966 139.273 16.668 141.677 16.7531V17.1795C138.921 17.0306 137.69 19.3765 137.69 21.7648V27.9702Z" fill="#121618"/>
<path d="M146.143 17.1788C143.543 17.1788 142.213 19.4607 142.213 22.1264C142.213 24.8349 143.543 26.946 145.986 26.946C148.567 26.946 149.974 24.7708 149.974 22.1264C149.994 19.6104 148.665 17.1788 146.143 17.1788ZM149.994 24.3013H149.955C149.544 26.2422 147.726 27.3724 146.006 27.3724C143.211 27.3724 141.823 24.9415 141.823 22.1264C141.823 19.1835 143.308 16.7524 146.143 16.7524C148.058 16.7524 149.563 18.1385 149.955 19.9296H149.994V17.0086H150.385V27.607C150.385 30.5926 148.821 32 146.202 32C144.169 32 142.429 30.9977 142.37 28.5454H142.761C142.84 30.7206 144.364 31.5738 146.182 31.5738C148.606 31.5738 149.994 30.3152 149.994 27.607V24.3013Z" fill="#121618"/>
<path d="M159.201 17.0112H159.613L154.98 30.2115C154.451 31.7042 153.533 31.7467 152.32 31.7467V31.3204C153.65 31.3416 154.197 31.235 154.666 29.9128L155.39 27.8655L151.187 17.0112H151.617L155.605 27.3963L159.201 17.0112Z" fill="#121618"/>
</svg>
